<?xml version="1.0" encoding="UTF-8"?>
<svg xmlns="http://www.w3.org/2000/svg" viewBox="0 0 1450.29 166.28">
  <defs>
    <style>
      .cls-1 {
        fill: #0000d4;
      }

      .cls-2 {
        fill: #fff;
      }

      .cls-3 {
        fill: red;
      }
    </style>
  </defs>
  <g id="Layer_1" data-name="Layer 1">
    <rect class="cls-3" x="0" y="0" width="166.28" height="166.28"/>
    <circle class="cls-2" cx="83.14" cy="83.14" r="83.14"/>
    <polygon class="cls-1" points="83.14 166.28 0 0 166.28 0 83.14 166.28"/>
  </g>
  <g id="Layer_2" data-name="Layer 2">
    <path class="cls-2" d="m1400.87,131v-4.31h2.95c2.25,0,2.72-.71,3.08-4.88.35-3.87.59-12.05.59-19.52v-3.59c0-7.61-.24-7.18-4.26-15.79l-14.66-31.57c-1.89-4.02-3.31-6.74-4.73-8.61-1.66-2.15-3.19-3.16-4.97-3.16h-2.25v-4.3h24.48v4.3h-.95c-1.18,0-1.77,1-1.77,2.3,0,3.45,2.6,8.47,5.8,15.5l11.35,24.68,10.99-19.95c3.9-6.89,6.74-14.06,6.74-18.23,0-2.3-.94-4.3-4.02-4.3h-3.31v-4.3h24.36v4.3h-1.07c-2.01,0-2.95.86-5.2,4.74l-6.51,11.19c-2.84,4.88-13.95,24.68-15.02,26.69-3.43,6.17-3.9,8.75-3.9,16.5v14.21c0,6.74.12,8.9.71,10.91.59,1.87,1.89,2.87,4.26,2.87h2.84v4.31h-25.54Z"/>
    <path class="cls-2" d="m1375.58,39.63h-.69c-1.89,0-1.99.7-2.28,4.77-.3,4.35-.49,13.33-.49,21.47v56.56c0,3.09-.1,6.04-.1,8.56h-5.55c-.89-1.96-4.09-7.02-5.47-9.4l-40.57-71.91c0,4.35.3,52.82.4,56.75.1,4.77.3,12.07,1.59,15.44.79,2.1,2.28,4.66,4.27,4.66l2.48.14v4.32h-17.76v-4.32l.69-.07c1.88,0,2.28-2.48,2.58-6.55.2-2.67.3-16.84.3-21.61v-45.75c0-6.6-.2-8.56-1.49-10.81-.79-1.26-2.28-2.25-4.27-2.25h-1.56v-4.21l16.34-.14c1.29,3.23,3.67,7.44,4.37,8.7l38.1,66.1c0-5.19-.3-44.91-.3-52.07,0-6.18-.69-12.63-1.69-15.44-.89-2.52-1.92-4.51-3.9-4.51h0v-2.65h15.02v4.21Z"/>
    <path class="cls-2" d="m1288.49,131v-4.23h1.15c1.58,0,2.16-1.13,2.16-2.68,0-1.98-.87-4.65-1.58-6.77l-8.19-24.39c-2.59,0-12.36-.14-15.81-.14-3.74,0-14.09.14-17.11.14l-4.88,12.12c-2.3,5.36-4.89,11.7-4.89,16.35,0,2.82,1.3,5.36,5.03,5.36h3.74v4.23h-26.88v-4.23h1.15c.72,0,1.72,0,2.58-.84,2.3-2.4,4.74-7.61,6.04-10.57l32.05-71.61c1.44-3.1,2.3-5.5,3.02-8.46h8.38c.57,2.68,1.42,5.08,2.72,8.6l24.04,68.65c3.73,10.71,4.34,14.23,7.93,14.23h2.88v4.23h-23.53Zm-21.27-80.07l-15.23,35.38c2.87,0,10.64.14,14.08.14,3.88,0,11.36-.14,13.65-.14l-12.5-35.38Z"/>
    <path class="cls-2" d="m1184.57,131v-4.29h1.17c2.76,0,3.35-.71,3.78-4.86.44-4.44.87-14.88.87-23.18v-45.07c0-6.72-.14-8.87-.87-10.87-.73-1.86-2.33-2.86-5.24-2.86h-3.64v-4.29h21.4c3.06,0,7.43-.29,13.83-.29,11.5,0,13.49.57,19.61,4.01,6.26,3.57,10.05,10.59,10.05,19.46,0,7.44-1.31,13.14-5.83,18.14-4.8,5.44-8.25,10.04-15.96,11.61-6.11,1.29-8.73,1.57-19.8,1.86v22.61c0,6.72.15,8.87.88,10.87.73,1.86,2.33,2.86,5.24,2.86h4.66v4.29h-30.14Zm30.71-89.99c-4.22,0-8.15.43-10.34.86-.87,8.16-1.02,15.45-1.02,25.61v15.45c4.52.57,6.99.71,9.03.71,14.12,0,22.86-8.3,22.86-21.89,0-12.88-7.72-20.74-20.53-20.74Z"/>
    <path class="cls-2" d="m1159.44,131v-4.3h.46c2.07,0,2.42-.71,2.88-4.87.23-1.58.23-4.59.23-7.59,0-4.73-.58-33.53-1.15-61.18l-17.16,41.84c-3.91,9.6-6.68,14.32-9.33,22.2h-4.61c-2.65-7.45-3.53-8.59-9.63-22.63l-17.54-40.65c-.58,28.51-.81,44.37-.81,59.13,0,5.3.11,8.88.69,10.89.58,1.87,1.84,2.86,4.15,2.86h2.99v4.3h-19.34v-4.3h.81c2.19,0,2.65-.71,2.99-4.87.34-4.44.69-9.03.92-17.34l1.61-50.72c0-1.29,0-7.02-.23-9.03-.34-3.44-1.61-5.02-4.61-5.02h-3.34v-4.3l18.08-.14c2.88,10.32,6.56,18.77,11.74,30.52l15.89,36.25,15.89-38.4c5.64-13.61,7.37-17.91,10.13-28.37l16,.14v4.3h-1.15c-2.19,0-2.76,1-3.22,5.16-.23,2.58-.23,7.31-.23,9.03l1.38,54.45c.12,6.73.46,13.47,1.03,15.47.58,1.87,1.84,2.86,4.15,2.86h2.88v4.3h-22.57Z"/>
    <path class="cls-2" d="m1051.18,131c-23.82,0-39.86-18.87-39.86-46.63,0-29.81,16.87-49.09,43.05-49.09,24.06,0,39.74,17.37,39.74,45.53s-17.93,50.18-42.93,50.18Zm.59-89.97c-16.63,0-27.48,15.59-27.48,39.38,0,27.62,11.08,44.85,28.89,44.85,19.46,0,27.95-19.55,27.95-39.65,0-27.76-11.09-44.58-29.37-44.58Z"/>
    <path class="cls-2" d="m1008.08,126.28l-.7.83c-7.28,3.06-16.53,3.89-24.28,3.89-24.74,0-40.92-18.89-40.92-47.93,0-16.67,6.13-30.7,17.34-39.31,7.28-5.7,16.07-8.47,27.74-8.47,7.05,0,14.34.56,20.92,3.89l1.16,1.8v16.67h-4.28v-4.59c0-1.67-.69-3.33-1.96-4.72-3.35-3.89-10.75-6.81-19.08-6.81-18.03,0-29.25,15.14-29.25,39.31,0,22.92,9.37,44.18,30.87,44.18,8.56,0,18.03-2.78,21.5-13.06l1.16-3.47,3.93,1.67-4.16,16.12Z"/>
    <path class="cls-2" d="m908.24,129.58l-1.61,1.42-53.09-.67.03-4.28h1.17c2.77.03,3.35-.68,3.81-4.81.47-4.41.97-14.81,1.02-23.07l.28-44.88c.04-6.69-.09-8.83-.81-10.83-.72-1.86-2.31-2.87-5.22-2.88l-3.64-.02.03-4.27,57.51.09,1.59,1.15-.11,17.09-4.95-.03.02-3.99c.02-2.99-1.43-4-4.19-5.44-4.35-2.31-10.75-3.2-16.29-3.24-4.22-.03-7.14.38-9.32.79-.92,8.11-1.11,15.24-1.18,25.35l-.06,9.26,4.66.03c8.88.06,16.74-.03,28.1-.53l-.93,8.83c-10.91-.64-16.3-.68-27.22-.75l-4.66-.03-.17,26.93c-.02,2.85-.03,5.13.1,7.12.55,5.28,2.87,7.43,12.18,7.49,4.95.03,8.83-.34,14.67-3.29,3.51-1.69,5.41-3.95,6.16-7.51l.9-4.13,4.94,1.03-3.75,18.07Z"/>
    <path class="cls-2" d="m847.16,126.28l-.7.83c-7.28,3.06-16.53,3.89-24.28,3.89-24.74,0-40.92-18.89-40.92-47.93,0-16.67,6.13-30.7,17.34-39.31,7.28-5.7,16.07-8.47,27.74-8.47,7.05,0,14.34.56,20.92,3.89l1.16,1.8v16.67h-4.28v-4.59c0-1.67-.69-3.33-1.96-4.72-3.35-3.89-10.75-6.81-19.08-6.81-18.03,0-29.25,15.14-29.25,39.31,0,22.92,9.37,44.18,30.87,44.18,8.56,0,18.03-2.78,21.5-13.06l1.16-3.47,3.93,1.67-4.16,16.12Z"/>
    <path class="cls-2" d="m753.74,131v-4.31h3.64c2.77,0,3.35-.71,3.78-4.88.44-4.45.87-14.93.87-23.25v-45.2c0-6.74-.14-8.9-.87-10.91-.73-1.87-2.33-2.87-5.24-2.87h-3.64v-4.3h31.59v4.3h-3.64c-2.76,0-3.35.72-3.78,4.88-.44,4.45-.88,14.93-.88,23.25v45.2c0,6.74.15,8.9.88,10.91.73,1.87,2.33,2.87,5.24,2.87h3.64v4.31h-31.59Z"/>
    <path class="cls-2" d="m750.07,129.56l-1.65,1.43-50.18-.29v-4.29h1.1c2.61,0,3.16-.71,3.57-4.86.41-4.44.82-14.88.82-23.18v-45.07c0-6.72-.14-8.87-.82-10.87-.69-1.86-2.2-2.86-4.94-2.86h-3.43v-4.29h29.78v4.29h-3.43c-2.61,0-3.16.72-3.57,4.86-.41,4.44-.82,14.88-.82,23.18v43.35c0,2.86,0,5.15.14,7.15.55,5.3,2.75,7.44,11.53,7.44,7,0,7.22-.72,11.2-2.14,4.8-1.86,7.55-4.87,8.51-9.16l.96-4.58,4.67,1-3.43,18.88Z"/>
    <path class="cls-2" d="m631.64,131v-4.29h1.16c2.77,0,3.35-.71,3.78-4.86.44-4.44.87-14.88.87-23.18v-45.07c0-6.72-.14-8.87-.87-10.87-.73-1.86-2.33-2.86-5.24-2.86h-3.64v-4.29h21.4c3.06,0,7.42-.29,13.83-.29,11.5,0,18.34.57,24.46,4.01,6.26,3.57,10.04,10.59,10.04,19.46,0,7.44-2.62,13.88-7.13,18.89-4.81,5.44-11.79,9.3-19.51,10.87-6.11,1.29-8.73,1.57-19.8,1.86v22.61c0,6.72.14,8.87.87,10.87.73,1.86,2.33,2.86,5.24,2.86h4.66v4.29h-30.13Zm30.72-89.99c-4.22,0-8.15.43-10.34.86-.87,8.16-1.02,15.45-1.02,25.61v15.45c4.51.57,6.99.71,9.03.71,14.12,0,22.86-8.3,22.86-21.89,0-12.88-7.72-20.74-20.53-20.74Z"/>
    <path class="cls-2" d="m605.63,131v-4.3h.48c2.14,0,2.5-.71,2.98-4.87.24-1.58.24-4.59.24-7.59,0-4.73-.6-33.53-1.19-61.18l-17.75,41.84c-4.05,9.6-6.91,15.9-9.65,23.78h-5.84c-2.74-7.45-4.05-10.17-10.37-24.22l-16.68-37.25c-.6,28.51-.83,40.98-.83,55.74,0,5.3.12,8.88.72,10.89.6,1.87,1.91,2.86,4.29,2.86h3.1v4.3h-20.02v-4.3h.83c2.26,0,2.74-.71,3.1-4.87.36-4.44.72-9.03.95-17.34l1.67-50.72c0-1.29,0-7.02-.24-9.03-.36-3.44-1.67-5.02-4.77-5.02h-3.45v-4.3l18.7-.14c2.98,10.32,6.79,18.77,12.15,30.52l16.44,36.25,16.44-38.4c5.84-13.61,7.63-17.91,10.48-28.37l16.56.14v4.3h-1.19c-2.27,0-2.86,1-3.34,5.16-.24,2.58-.24,7.31-.24,9.03l1.43,54.45c.12,6.73.48,13.47,1.07,15.47.6,1.87,1.91,2.86,4.29,2.86h2.98v4.3h-23.35Z"/>
    <path class="cls-2" d="m499.91,130.6v-4.27h3.64c2.77,0,3.35-.71,3.78-4.84.44-4.41.87-14.8.87-23.05v-44.83c0-6.69-.14-8.82-.87-10.81-.73-1.85-2.33-2.85-5.24-2.85h-3.64v-4.27h31.59v4.27h-3.64c-2.77,0-3.35.71-3.79,4.84-.44,4.41-.87,14.8-.87,23.05v44.83c0,6.69.14,8.82.87,10.81.73,1.85,2.33,2.84,5.24,2.84h3.64v4.27h-31.59Z"/>
    <path class="cls-2" d="m466.34,130.99c-6.84,0-14.12-.83-20.82-1.94l-1.45-1.53-1.45-18.47,5.39-.14.14,2.92c.15,3.34,2.04,6.39,5.1,8.62,3.64,2.78,8.88,4.44,14.7,4.44,11.79,0,19.65-6.11,19.65-15.97s-8.45-15.7-19.94-20.98c-14.27-6.53-25.04-12.36-25.04-26.39,0-15.28,14.12-26.26,33.77-26.26,6.4,0,9.61.42,17.32,2.22l1.31,1.81v15.28h-5.24l-.14-4.03c-.14-2.08-1.17-3.89-2.91-5.28-2.91-2.36-7.72-3.75-13.68-3.75-10.63,0-17.62,6.11-17.62,15.28,0,8.61,4.95,12.92,19.07,19.59,14.56,6.95,26.35,12.64,26.35,28.06,0,17.64-16.6,26.53-34.5,26.53Z"/>
    <path class="cls-2" d="m255.6,55.5v-3.85c0-4.84-2.57-7.55-7.03-8.97-3.38-1-7.44-1.28-9.06-1.28s-8.11,0-11.22.14c-.81,8.83-.95,15.96-.95,26.36v44.88c0,6.69.13,8.83.81,10.83.68,1.86,2.16,2.85,4.87,2.85h4.19v4.28h-31.1v-4.28h4.33c2.57,0,3.11-.71,3.52-4.84.41-4.42.81-14.82.81-23.08v-44.88c0-2.99-.27-9.83-.41-12.11-3.11-.14-10.28-.14-11.9-.14s-5.68.29-9.06,1.28c-4.46,1.42-7.03,4.13-7.03,8.97v3.85h-4.6v-18.81l1.49-1.14c7.44.14,28.26.14,38.27.14s28.4,0,37.19-.14l1.62,1.14v18.81h-4.73Z"/>
    <path class="cls-2" d="m322.83,130.72v-4.28h1.73c2.2,0,2.66-.71,3.01-4.85.35-4.42.69-14.84.69-23.11v-14.27c-3.7,0-7.4-.14-21.62-.14-16.42,0-20.58.14-24.86.14v28.54c0,6.7.11,8.85.69,10.84.58,1.86,1.85,2.85,4.16,2.85h2.89v4.28h-23.93v-4.28h1.73c2.2,0,2.66-.71,3.01-4.85.35-4.42.69-14.84.69-23.11v-44.94c0-6.7-.11-8.85-.69-10.84-.58-1.86-1.85-2.85-4.16-2.85h-2.89v-4.28h23.81v4.28h-1.62c-2.2,0-2.66.72-3.01,4.85-.35,4.42-.69,14.84-.69,23.11v9.56c4.28,0,8.55.14,24.86.14,14.1,0,17.8-.14,21.62-.14v-23.83c0-6.7-.12-8.85-.69-10.84-.58-1.86-1.85-2.85-4.16-2.85h-2.89v-4.28h23.81v4.28h-1.62c-2.2,0-2.66.72-3.01,4.85-.35,4.42-.69,14.84-.69,23.11v44.94c0,6.7.12,8.85.69,10.84.58,1.86,1.85,2.85,4.16,2.85h2.89v4.28h-23.93Z"/>
    <path class="cls-2" d="m404.91,129.58l-1.61,1.42-53.09-.67.03-4.28h1.17c2.77.03,3.35-.68,3.81-4.81.47-4.41.97-14.81,1.02-23.07l.28-44.88c.04-6.69-.09-8.83-.81-10.83-.72-1.86-2.31-2.87-5.22-2.88l-3.64-.02.03-4.27,57.51.09,1.59,1.15-.11,17.09-4.95-.03.02-3.99c.02-2.99-1.43-4-4.19-5.44-4.35-2.31-10.75-3.2-16.29-3.24-4.22-.03-7.14.38-9.32.79-.92,8.11-1.11,15.24-1.18,25.35l-.06,9.26,4.66.03c8.88.06,16.74-.03,28.1-.53l-.93,8.83c-10.91-.64-16.3-.68-27.22-.75l-4.66-.03-.17,26.93c-.02,2.85-.03,5.13.1,7.12.55,5.28,2.87,7.43,12.18,7.49,4.95.03,8.83-.34,14.67-3.29,3.51-1.69,5.41-3.95,6.16-7.51l.9-4.13,4.94,1.03-3.75,18.07Z"/>
  </g>
</svg>