<?xml version="1.0" encoding="UTF-8"?>
<svg id="Layer_1" data-name="Layer 1" xmlns="http://www.w3.org/2000/svg" viewBox="0 0 529.95 132.96">
  <defs>
    <style>
      .cls-1 {
        fill: #231f20;
      }
    </style>
  </defs>
  <path class="cls-1" d="m11.02,52.64c-3.67,0-7.13-.5-10.58-1.3l-.43-.65.72-11.38h2.88l-.07,2.16c0,1.08.14,2.02.43,2.81,1.08,3.02,4.61,4.32,8.06,4.32,6.41,0,9.94-3.1,9.94-7.63,0-3.17-1.51-5.18-5.4-7.2l-4.68-2.52c-4.82-2.59-8.14-5.62-8.14-12.67C3.74,10.15,10.66,2.88,22.47,2.88c3.31,0,6.84.43,10.37,1.22l.43.72-1.37,10.01h-2.88l.43-2.88c.07-.43.07-.79.07-1.15,0-2.02-3.89-4.03-7.78-4.03-5.26,0-8.35,2.66-8.35,6.98,0,2.52,1.15,4.61,5.11,6.7l4.9,2.59c4.68,2.52,8.64,6.05,8.64,12.75,0,11.45-10.87,16.85-21.03,16.85Z"/>
  <path class="cls-1" d="m31.14,51.7l.29-2.02h.29c1.01,0,1.3-.29,1.66-1.8.58-2.38,1.01-4.82,1.58-8.5l1.58-10.8c.72-5.04-.07-6.34-2.3-6.34h-1.22l.36-2.02,13.9-.65.43.58c-1.08,4.32-1.73,8.28-2.3,12.31l-1.58,10.51c-.65,4.1-.65,6.7,1.87,6.7h.86l-.29,2.02h-15.12Zm7.63-42.12c0-5.98,2.09-7.13,6.77-7.13,2.88,0,4.1.43,4.1,3.02,0,5.98-2.09,7.13-6.77,7.13-2.88,0-4.1-.43-4.1-3.02Z"/>
  <path class="cls-1" d="m86.89,51.7l.29-2.02h.29c1.01,0,1.3-.29,1.66-1.8.58-2.38,1.08-4.82,1.58-8.5l.79-5.18c.14-1.01.36-2.52.36-3.6,0-2.09-.29-3.46-1.8-3.46-.94,0-2.38.94-3.89,2.45-2.88,2.88-4.39,5.62-5.11,10.51l-.43,2.88c-.65,4.1-.65,6.7,1.87,6.7h.86l-.29,2.02h-15.12l.29-2.02h.29c1.01,0,1.3-.29,1.66-1.8.58-2.38,1.01-4.82,1.58-8.5l.79-5.18c.14-1.01.36-2.52.36-3.6,0-2.09-.29-3.46-1.8-3.46-.94,0-2.38.94-3.89,2.45-2.88,2.88-4.39,5.62-5.11,10.51l-.43,2.88c-.65,4.1-.65,6.7,1.87,6.7h.86l-.29,2.02h-15.12l.29-2.02h.29c1.01,0,1.3-.29,1.66-1.8.58-2.38,1.01-4.82,1.58-8.5l1.58-10.8c.72-5.04-.07-6.34-2.3-6.34h-1.22l.36-2.02,13.39-.65.43.58c-.5,3.02-.94,6.05-1.44,8.93,5.54-6.05,9.29-10.15,13.97-10.15,3.53,0,5.4,2.23,5.4,5.98,0,.94-.14,2.74-.43,4.18,5.54-6.05,9.29-10.15,13.97-10.15,3.53,0,5.47,2.23,5.47,5.98,0,1.8-.58,5.54-.86,7.56l-1.58,10.51c-.65,4.1-.65,6.7,1.87,6.7h.86l-.29,2.02h-15.12Z"/>
  <path class="cls-1" d="m134.16,42.77c-3.02,6.26-8.71,9.86-16.78,9.86-1.37,0-2.95-.14-4.25-.36l-1.15,7.99c-.58,4.1-.65,6.7,1.87,6.7h1.58l-.29,2.02h-15.84l.29-2.02h.29c1.01,0,1.3-.29,1.66-1.8.58-2.38,1.01-4.82,1.58-8.5l4.1-28.08c.72-5.04-.07-6.34-2.3-6.34h-1.22l.36-2.02,13.39-.65.43.58c-.5,2.88-.94,5.9-1.44,8.93,5.62-6.41,8.93-10.15,13.46-10.15,4.25,0,6.91,4.1,6.91,11.81,0,3.96-.79,8.14-2.66,12.02Zm-10.58-15.27c-1.22,0-2.3.86-3.53,2.09-2.88,2.88-4.39,5.62-5.11,10.51l-.5,3.46c-.14.94-.29,1.8-.29,2.38,0,1.44,1.3,2.45,4.32,2.45,6.48,0,7.92-8.06,7.92-14.04,0-3.31-.58-6.84-2.81-6.84Z"/>
  <path class="cls-1" d="m135.63,51.7l.29-2.02h.29c1.01,0,1.3-.29,1.66-1.8.58-2.38,1.01-4.82,1.58-8.5l4.46-30.39c.72-5.04-.07-6.34-2.3-6.34h-1.22l.36-2.02,13.9-.65.43.58c-1.08,4.32-1.73,8.35-2.3,12.39l-4.46,30.03c-.65,4.1-.65,6.7,1.87,6.7h.86l-.29,2.02h-15.12Z"/>
  <path class="cls-1" d="m173.59,50.55c-2.3,3.6-5.26,8.06-8.42,11.66-3.67,4.18-7.78,7.34-11.52,7.34-3.02,0-4.46-1.66-4.46-5.04,0-2.95.58-4.68,3.96-5.47l.36.22c.43,1.51,1.51,2.45,2.95,2.45,2.09,0,4.18-1.15,6.41-3.38,2.02-2.02,4.03-4.82,6.26-8.42-1.01.86-2.95,1.8-4.32,1.8-3.24,0-4.61-2.95-5.33-11.67-.36-4.18-.65-7.13-1.08-11.31-.5-5.04-.65-6.48-3.1-6.48h-1.22l.36-2.02,12.67-.65.43.58c0,2.88,0,5.47.22,8.21.22,3.17.43,6.34.79,9.79.43,4.25.86,5.33,2.16,5.33,1.15,0,2.52-1.08,4.25-4.25,2.02-3.74,3.24-8.57,3.24-11.67,0-2.3-1.15-3.24-2.81-3.24-.36,0-.72.07-1.08.14l-.36-.29.14-.72c.5-2.66,2.38-4.1,7.27-4.1,3.02,0,4.25.65,4.25,3.1,0,5.62-7.34,20.74-12.03,28.08Z"/>
  <path class="cls-1" d="m220.37,51.99l-.43-.58c-.14-1.51.14-5.98.65-8.93-5.47,6.34-8.86,10.15-13.11,10.15-3.89,0-6.55-4.1-6.55-11.81,0-3.96.79-8.14,2.66-12.02,2.88-5.9,8.35-9.86,16.99-9.86,4.46,0,9.43.79,14.04,2.23l.07.79-2.23,2.74-2.09,14.11c-.86,5.98-.94,10.51,2.23,10.51h1.22l-.36,2.02-13.1.65Zm-3.38-10.01c2.88-2.88,4.39-5.62,5.11-10.51l1.08-7.2c-1.3-.65-2.81-1.08-4.25-1.08-6.12,0-7.56,8.06-7.56,14.04,0,3.31.58,6.84,2.45,6.84,1.01,0,1.94-.86,3.17-2.09Z"/>
  <path class="cls-1" d="m244.58,52.64c-4.46,0-6.41-2.59-6.41-6.26,0-1.8.43-4.32.86-7.27l2.23-14.62h-5.33l.5-2.74h1.37c2.59,0,3.82-1.01,5.33-3.46,1.94-3.1,3.67-6.12,5.54-9.5h4.61l-1.94,11.38h8.79l-1.44,4.32h-7.99l-2.02,12.89c-.22,1.66-.5,3.6-.5,5.26,0,2.38.79,3.53,2.66,3.53,1.44,0,3.1-.94,5.18-2.81l1.51,2.02c-5.4,5.9-9.79,7.27-12.96,7.27Z"/>
  <path class="cls-1" d="m279.57,51.7l.29-2.02h.29c1.01,0,1.3-.29,1.66-1.8.58-2.38,1.01-4.82,1.58-8.5l1.58-10.8c.72-5.04-.07-6.34-2.3-6.34h-1.22l.36-2.02,13.9-.65.43.58c-1.08,4.32-1.73,8.28-2.3,12.31l-1.58,10.51c-.65,4.1-.65,6.7,1.87,6.7h.86l-.29,2.02h-15.12Zm7.63-42.12c0-5.98,2.09-7.13,6.77-7.13,2.88,0,4.1.43,4.1,3.02,0,5.98-2.09,7.13-6.77,7.13-2.88,0-4.1-.43-4.1-3.02Z"/>
  <path class="cls-1" d="m306.81,52.64c-4.46,0-6.41-2.59-6.41-6.26,0-1.8.43-4.32.86-7.27l2.23-14.62h-5.33l.5-2.74h1.37c2.59,0,3.82-1.01,5.33-3.46,1.94-3.1,3.67-6.12,5.54-9.5h4.61l-1.94,11.38h8.79l-1.44,4.32h-7.99l-2.02,12.89c-.22,1.66-.5,3.6-.5,5.26,0,2.38.79,3.53,2.66,3.53,1.44,0,3.1-.94,5.18-2.81l1.51,2.02c-5.4,5.9-9.79,7.27-12.96,7.27Z"/>
  <path class="cls-1" d="m330.59,52.64c-5.91,0-9.72-1.37-9.72-5.11,0-3.02,1.01-5.62,4.83-5.62.29,0,.65.07.94.07l.36.43c-.22,3.89.79,6.84,4.75,6.84,2.45,0,4.39-1.15,4.39-3.82,0-5.33-11.67-6.91-11.67-15.05,0-5.4,4.32-11.45,14.62-11.45,5.54,0,8.57,1.51,8.57,4.18,0,3.46-1.73,5.47-6.12,5.4l-.36-.29c.43-3.24-.43-6.19-4.1-6.19-2.09,0-3.53,1.3-3.53,3.46,0,5.62,11.74,7.27,11.74,15.55,0,6.48-5.69,11.59-14.69,11.59Z"/>
  <path class="cls-1" d="m400.35,42.77c-3.02,6.26-8.71,9.86-16.78,9.86-4.97,0-9.65-.58-13.61-1.51l-.36-.79c.79-2.81,1.51-5.98,2.23-10.94l4.46-30.39c.72-5.04-.07-6.34-2.3-6.34h-1.22l.36-2.02,13.9-.65.43.58c-1.08,4.32-1.73,8.35-2.3,12.39l-2.38,15.91c5.47-6.26,8.86-9.94,13.32-9.94s6.91,4.1,6.91,11.81c0,3.96-.79,8.14-2.67,12.02Zm-10.58-15.27c-1.22,0-2.3.86-3.53,2.09-2.88,2.88-4.39,5.62-5.11,10.51l-.5,3.46c-.14.94-.29,1.8-.29,2.38,0,1.44,1.3,2.45,4.32,2.45,6.48,0,7.92-8.06,7.92-14.04,0-3.31-.58-6.84-2.81-6.84Z"/>
  <path class="cls-1" d="m415.35,52.64c-7.13,0-10.87-4.25-10.87-12.75,0-10.94,7.34-20.95,18.65-20.95,6.48,0,9.72,3.31,9.72,7.27,0,2.66-.65,4.1-3.24,5.11-5.18,2.02-10.44,3.31-15.91,4.54-.07.58-.07,1.22-.07,1.87,0,3.89,1.01,8.21,6.55,8.21,3.38,0,6.12-1.8,8.5-4.39l1.8,1.58c-3.89,5.26-7.71,9.5-15.12,9.5Zm5.33-29.88c-4.39,0-6.19,5.83-6.77,9.79,1.15-.22,4.39-1.01,6.77-1.8,2.02-.65,3.53-1.58,3.53-3.67,0-2.81-1.51-4.32-3.53-4.32Z"/>
  <path class="cls-1" d="m441.44,52.64c-5.91,0-9.72-1.37-9.72-5.11,0-3.02,1.01-5.62,4.83-5.62.29,0,.65.07.94.07l.36.43c-.22,3.89.79,6.84,4.75,6.84,2.45,0,4.39-1.15,4.39-3.82,0-5.33-11.67-6.91-11.67-15.05,0-5.4,4.32-11.45,14.62-11.45,5.54,0,8.57,1.51,8.57,4.18,0,3.46-1.73,5.47-6.12,5.4l-.36-.29c.43-3.24-.43-6.19-4.1-6.19-2.09,0-3.53,1.3-3.53,3.46,0,5.62,11.74,7.27,11.74,15.55,0,6.48-5.69,11.59-14.69,11.59Z"/>
  <path class="cls-1" d="m468.52,52.64c-4.46,0-6.41-2.59-6.41-6.26,0-1.8.43-4.32.86-7.27l2.23-14.62h-5.33l.5-2.74h1.37c2.59,0,3.82-1.01,5.33-3.46,1.94-3.1,3.67-6.12,5.54-9.5h4.61l-1.94,11.38h8.79l-1.44,4.32h-7.99l-2.02,12.89c-.22,1.66-.5,3.6-.5,5.26,0,2.38.79,3.53,2.66,3.53,1.44,0,3.1-.94,5.18-2.81l1.51,2.02c-5.4,5.9-9.79,7.27-12.96,7.27Z"/>
  <path class="cls-1" d="m478.9,65.53l-1.01-2.23c4.54-2.09,8.42-5.04,8.42-10.01,0-3.1-1.51-4.61-4.1-4.61l-.43-1.01c1.66-4.39,3.38-7.06,5.83-7.06,3.67,0,6.34,4.03,6.34,8.14,0,10.22-10.3,14.69-15.05,16.78Z"/>
  <path class="cls-1" d="m26.99,115.1l.29-2.02h.29c1.01,0,1.3-.29,1.66-1.8.58-2.38,1.01-4.82,1.58-8.5l1.58-10.8c.72-5.04-.07-6.34-2.3-6.34h-1.22l.36-2.02,13.9-.65.43.58c-1.08,4.32-1.73,8.28-2.3,12.31l-1.58,10.51c-.65,4.1-.65,6.7,1.87,6.7h.86l-.29,2.02h-15.12Zm7.63-42.12c0-5.98,2.09-7.13,6.77-7.13,2.88,0,4.1.43,4.1,3.02,0,5.98-2.09,7.13-6.77,7.13-2.88,0-4.1-.43-4.1-3.02Z"/>
  <path class="cls-1" d="m54.18,116.04c-6.98,0-10.73-4.39-10.73-12.74,0-10.08,6.62-20.95,18.65-20.95,3.53,0,6.91,1.01,6.91,4.54,0,4.25-2.45,5.62-6.19,6.19l-.43-.36c.29-3.31-.36-6.34-3.31-6.34-5.18,0-6.41,9.87-6.41,14.04s1.01,8.93,5.98,8.93c3.46,0,6.05-2.59,7.56-4.54l1.94,1.73c-3.31,4.75-7.06,9.5-13.97,9.5Z"/>
  <path class="cls-1" d="m79.98,116.04c-7.13,0-10.87-4.25-10.87-12.74,0-10.95,7.34-20.95,18.65-20.95,6.48,0,9.72,3.31,9.72,7.27,0,2.66-.65,4.1-3.24,5.11-5.18,2.02-10.44,3.31-15.91,4.54-.07.58-.07,1.22-.07,1.87,0,3.89,1.01,8.21,6.55,8.21,3.38,0,6.12-1.8,8.5-4.39l1.8,1.58c-3.89,5.26-7.7,9.5-15.12,9.5Zm5.33-29.88c-4.39,0-6.19,5.83-6.77,9.79,1.15-.21,4.39-1.01,6.77-1.8,2.02-.65,3.53-1.58,3.53-3.67,0-2.81-1.51-4.32-3.53-4.32Z"/>
  <path class="cls-1" d="m122.08,116.04c-6.98,0-10.73-4.39-10.73-12.74,0-10.08,6.62-20.95,18.65-20.95,3.53,0,6.91,1.01,6.91,4.54,0,4.25-2.45,5.62-6.19,6.19l-.43-.36c.29-3.31-.36-6.34-3.31-6.34-5.18,0-6.41,9.87-6.41,14.04s1.01,8.93,5.98,8.93c3.46,0,6.05-2.59,7.56-4.54l1.94,1.73c-3.31,4.75-7.06,9.5-13.97,9.5Z"/>
  <path class="cls-1" d="m137.48,104.75c-.13-12.89,8.78-22.77,21.3-22.89,6.91-.07,11.34,3.27,11.42,11.63.13,12.89-8.78,22.77-21.31,22.89-6.91.07-11.34-3.27-11.42-11.63Zm22.08-10.44c-.06-5.76-1.17-8.7-3.97-8.67-6.48.06-7.49,14.04-7.45,18.29.06,5.76,1.17,8.7,3.97,8.67,6.48-.06,7.49-14.04,7.45-18.29Z"/>
  <path class="cls-1" d="m168.64,115.1l.29-2.02h.29c1.01,0,1.3-.29,1.66-1.8.58-2.38,1.01-4.82,1.58-8.5l4.46-30.39c.72-5.04-.07-6.34-2.3-6.34h-1.22l.36-2.02,13.9-.65.43.58c-1.08,4.32-1.73,8.35-2.3,12.39l-4.46,30.03c-.65,4.1-.65,6.7,1.87,6.7h.86l-.29,2.02h-15.12Z"/>
  <path class="cls-1" d="m205.76,115.39l-.43-.58c-.14-1.51.14-5.98.65-8.93-5.62,6.41-8.93,10.15-13.46,10.15-4.25,0-6.91-4.1-6.91-11.81,0-3.96.79-8.14,2.66-12.03,3.02-6.26,8.71-9.86,16.78-9.86,1.37,0,2.95.14,4.25.36l1.51-10.3c.72-5.04-.07-6.34-2.3-6.34h-1.22l.36-2.02,13.9-.65.43.58c-1.08,4.32-1.73,8.35-2.3,12.39l-3.89,25.85c-.86,5.98-.94,10.51,2.23,10.51h1.22l-.36,2.02-13.11.65Zm-3.38-10.01c2.88-2.88,4.39-5.62,5.11-10.51l.5-3.46c.14-.94.29-1.8.29-2.38,0-1.44-1.3-2.45-4.32-2.45-6.48,0-7.92,8.07-7.92,14.04,0,3.31.58,6.84,2.81,6.84,1.22,0,2.3-.86,3.53-2.09Z"/>
  <path class="cls-1" d="m273.14,106.17c-3.02,6.26-8.71,9.86-16.78,9.86-4.97,0-9.65-.58-13.61-1.51l-.36-.79c.79-2.81,1.51-5.98,2.23-10.94l4.46-30.39c.72-5.04-.07-6.34-2.3-6.34h-1.22l.36-2.02,13.9-.65.43.58c-1.08,4.32-1.73,8.35-2.3,12.39l-2.38,15.91c5.47-6.26,8.86-9.94,13.32-9.94s6.91,4.1,6.91,11.81c0,3.96-.79,8.14-2.67,12.02Zm-10.58-15.27c-1.22,0-2.3.86-3.53,2.09-2.88,2.88-4.39,5.62-5.11,10.51l-.5,3.46c-.14.94-.29,1.8-.29,2.38,0,1.44,1.3,2.45,4.32,2.45,6.48,0,7.92-8.06,7.92-14.04,0-3.31-.58-6.84-2.81-6.84Z"/>
  <path class="cls-1" d="m298.12,113.95c-2.3,3.6-5.26,8.06-8.42,11.67-3.67,4.18-7.78,7.34-11.52,7.34-3.02,0-4.46-1.66-4.46-5.04,0-2.95.58-4.68,3.96-5.47l.36.22c.43,1.51,1.51,2.45,2.95,2.45,2.09,0,4.18-1.15,6.41-3.38,2.02-2.02,4.03-4.82,6.26-8.43-1.01.87-2.95,1.8-4.32,1.8-3.24,0-4.61-2.95-5.33-11.67-.36-4.18-.65-7.13-1.08-11.31-.5-5.04-.65-6.48-3.1-6.48h-1.22l.36-2.02,12.67-.65.43.58c0,2.88,0,5.47.22,8.21.22,3.17.43,6.34.79,9.79.43,4.25.86,5.33,2.16,5.33,1.15,0,2.52-1.08,4.25-4.25,2.02-3.74,3.24-8.57,3.24-11.67,0-2.3-1.15-3.24-2.81-3.24-.36,0-.72.07-1.08.14l-.36-.29.14-.72c.5-2.66,2.38-4.1,7.27-4.1,3.02,0,4.25.65,4.25,3.1,0,5.62-7.34,20.74-12.03,28.08Z"/>
  <path class="cls-1" d="m352.4,115.1l.29-2.02h.29c1.01,0,1.3-.29,1.66-1.8.58-2.38,1.08-4.82,1.58-8.5l.79-5.19c.14-1.01.36-2.52.36-3.6,0-2.09-.58-3.46-2.23-3.46-1.15,0-2.66.94-4.18,2.45-2.88,2.88-4.39,5.62-5.11,10.51l-.43,2.88c-.65,4.1-.65,6.7,1.87,6.7h.86l-.29,2.02h-15.12l.29-2.02h.29c1.01,0,1.3-.29,1.66-1.8.58-2.38,1.01-4.82,1.58-8.5l1.58-10.8c.72-5.04-.07-6.34-2.3-6.34h-1.22l.36-2.02,13.39-.65.43.58c-.5,3.1-.94,6.05-1.44,8.93,5.54-6.05,9.29-10.15,14.33-10.15,3.67,0,5.83,2.23,5.83,5.98,0,1.8-.58,5.54-.86,7.56l-1.58,10.51c-.65,4.1-.65,6.7,1.87,6.7h.86l-.29,2.02h-15.12Z"/>
  <path class="cls-1" d="m389.08,115.39l-.43-.58c-.14-1.51.14-5.98.65-8.93-5.47,6.34-8.86,10.15-13.11,10.15-3.89,0-6.55-4.1-6.55-11.81,0-3.96.79-8.14,2.66-12.03,2.88-5.9,8.35-9.86,16.99-9.86,4.46,0,9.43.79,14.04,2.23l.07.79-2.23,2.74-2.09,14.11c-.86,5.98-.94,10.51,2.23,10.51h1.22l-.36,2.02-13.11.65Zm-3.38-10.01c2.88-2.88,4.39-5.62,5.11-10.51l1.08-7.2c-1.3-.65-2.81-1.08-4.25-1.08-6.12,0-7.56,8.07-7.56,14.04,0,3.31.58,6.84,2.45,6.84,1.01,0,1.94-.86,3.17-2.09Z"/>
  <path class="cls-1" d="m413.29,116.04c-4.46,0-6.41-2.59-6.41-6.26,0-1.8.43-4.32.86-7.27l2.23-14.62h-5.33l.5-2.74h1.37c2.59,0,3.82-1.01,5.33-3.46,1.94-3.1,3.67-6.12,5.54-9.5h4.61l-1.94,11.38h8.79l-1.44,4.32h-7.99l-2.02,12.89c-.22,1.66-.5,3.6-.5,5.26,0,2.38.79,3.53,2.66,3.53,1.44,0,3.1-.94,5.18-2.81l1.51,2.02c-5.4,5.9-9.79,7.27-12.96,7.27Z"/>
  <path class="cls-1" d="m450.09,115.39l-.43-.58c.22-1.94.79-5.98,1.3-8.93-5.54,6.05-9.29,10.15-13.97,10.15-3.53,0-5.47-2.23-5.47-5.98,0-2.09.5-5.26.86-7.56l1.58-10.51c.72-5.04-.07-6.34-2.3-6.34h-1.22l.36-2.02,13.9-.65.43.58c-1.08,4.32-1.66,8.28-2.3,12.31l-.79,4.9c-.14,1.01-.36,2.52-.36,3.6,0,2.09.29,3.46,1.8,3.46.94,0,2.38-.94,3.89-2.45,2.88-2.88,4.39-5.62,5.11-10.51l.43-2.88c.72-5.04-.07-6.34-2.3-6.34h-1.22l.36-2.02,13.9-.65.43.58c-1.08,4.32-1.66,8.28-2.3,12.31l-1.01,6.34c-.94,5.98-1.3,10.51,1.58,10.51h1.22l-.36,2.02-13.11.65Z"/>
  <path class="cls-1" d="m465.38,115.1l.29-2.02h.29c1.01,0,1.3-.29,1.66-1.8.58-2.38,1.01-4.82,1.58-8.5l1.58-10.8c.72-5.04-.07-6.34-2.3-6.34h-1.22l.36-2.02,12.82-.65.43.58-1.51,9.43c3.75-5.04,7.2-10.59,12.24-10.59,2.45,0,3.53,1.58,3.53,3.6,0,4.1-1.73,8.14-6.84,8.06l-.36-.36c.07-1.58-.43-2.67-1.58-2.67-3.31,0-6.99,6.48-7.85,12.46l-.43,2.88c-.65,4.1-.65,6.7,1.87,6.7h2.3l-.29,2.02h-16.56Z"/>
  <path class="cls-1" d="m503.7,116.04c-7.13,0-10.87-4.25-10.87-12.74,0-10.95,7.34-20.95,18.65-20.95,6.48,0,9.72,3.31,9.72,7.27,0,2.66-.65,4.1-3.24,5.11-5.18,2.02-10.44,3.31-15.91,4.54-.07.58-.07,1.22-.07,1.87,0,3.89,1.01,8.21,6.55,8.21,3.38,0,6.12-1.8,8.5-4.39l1.8,1.58c-3.89,5.26-7.71,9.5-15.12,9.5Zm5.33-29.88c-4.39,0-6.19,5.83-6.77,9.79,1.15-.21,4.39-1.01,6.77-1.8,2.02-.65,3.53-1.58,3.53-3.67,0-2.81-1.51-4.32-3.53-4.32Z"/>
  <path class="cls-1" d="m519.15,112.51c0-6.12,2.16-7.35,6.77-7.35,2.74,0,4.03.43,4.03,3.1,0,6.19-2.16,7.34-6.77,7.34-2.74,0-4.03-.43-4.03-3.1Z"/>
</svg>